<svg xmlns="http://www.w3.org/2000/svg" xmlns:xlink="http://www.w3.org/1999/xlink" version="1.1" x="0px" y="0px" viewBox="0 0 97 121.25" enable-background="new 0 0 97 97" xml:space="preserve"><path fill="#000000" d="M73.909,44.368c-0.26-0.318-0.647-0.502-1.059-0.502H66.79v-6.631c0-1.85-1.504-3.352-3.353-3.352h-2.101  c0.037-0.203,0.06-0.41,0.06-0.621v-5.459c0-1.848-1.504-3.352-3.352-3.352h-8.18v-10.57l6.232-5.146  c0.581-0.48,0.663-1.34,0.182-1.922c-0.479-0.582-1.34-0.664-1.922-0.184l-6.723,5.555c-0.037,0.029-0.07,0.061-0.103,0.094  c-0.015,0.014-0.026,0.029-0.041,0.045c-0.016,0.018-0.033,0.035-0.048,0.053c-0.016,0.02-0.029,0.039-0.044,0.059  c-0.012,0.018-0.024,0.033-0.036,0.049c-0.012,0.02-0.024,0.041-0.036,0.061c-0.011,0.018-0.021,0.035-0.032,0.055  c-0.009,0.02-0.018,0.039-0.027,0.059c-0.01,0.021-0.02,0.041-0.029,0.063c-0.007,0.018-0.013,0.035-0.02,0.055  c-0.009,0.023-0.019,0.047-0.024,0.072c-0.006,0.018-0.01,0.035-0.015,0.051c-0.006,0.027-0.013,0.051-0.018,0.078  c-0.004,0.02-0.007,0.041-0.01,0.063c-0.004,0.023-0.009,0.045-0.01,0.068c-0.005,0.043-0.007,0.084-0.007,0.127  c0,0.002-0.001,0.004-0.001,0.006v0.002l0,0v11.211h-8.179c-1.848,0-3.351,1.504-3.351,3.352v5.459c0,0.211,0.021,0.418,0.06,0.621  h-2.103c-1.848,0-3.351,1.502-3.351,3.352v6.631H24.15c-0.41,0-0.8,0.184-1.059,0.502c-0.259,0.32-0.361,0.738-0.278,1.139  c1.601,7.74,3.203,15.48,4.805,23.219c1.44,6.957,2.88,13.912,4.318,20.867c0.131,0.635,0.69,1.09,1.337,1.09h30.454  c0.646,0,1.205-0.455,1.336-1.09l4.105-19.836c1.674-8.082,3.347-16.166,5.018-24.25C74.271,45.106,74.168,44.688,73.909,44.368z   M32.941,37.235c0-0.344,0.279-0.623,0.621-0.623h5.394h19.089h5.393c0.344,0,0.622,0.279,0.622,0.623v6.631H32.941V37.235z   M66.496,69.204L66,71.601H31.001c-0.236-1.143-0.473-2.285-0.709-3.428c-0.683-3.295-1.363-6.59-2.046-9.885h40.509  C68.002,61.927,67.248,65.565,66.496,69.204z"/></svg>