<?xml version="1.0" encoding="UTF-8"?>
<svg width="25px" height="24px" viewBox="0 0 25 24" version="1.1" xmlns="http://www.w3.org/2000/svg" xmlns:xlink="http://www.w3.org/1999/xlink">
    <!-- Generator: Sketch 53 (72520) - https://sketchapp.com -->
    <title>Starter</title>
    <desc>Created with Sketch.</desc>
    <g id="Symbols" stroke="none" stroke-width="1" fill="none" fill-rule="evenodd">
        <g id="Icons-/-Category-/-Starter-/-Light" transform="translate(-11.000000, -12.000000)" fill="#000000">
            <path d="M23.6140863,29.4996309 L25.3558,30.2306 L25.4191064,30.2040477 C25.3934651,30.1760411 25.3721693,30.1430273 25.3567,30.1055 C25.3097,29.9885 25.1267,29.2565 25.4177,28.5995 C25.468613,28.4852286 25.5312866,28.3795176 25.6049967,28.2830686 C25.5990011,28.2734627 25.5934236,28.2634692 25.5883,28.2531 C25.5413,28.1591 25.0963,27.3371 24.2393,27.6711 C23.3293,28.0251 23.6723,29.1471 23.6763,29.1581 C23.7174656,29.2774803 23.6903762,29.4076874 23.6140863,29.4996309 Z M22.9866136,29.2362908 C22.9207419,28.9533379 22.8566713,28.4165894 23.0633,27.9151 C23.2323,27.5081 23.5523,27.2011 23.9903,27.0301 C24.6671995,26.7667646 25.2175978,26.9441647 25.6104667,27.240309 C25.6268679,27.0618843 25.6663496,26.8739538 25.7421,26.6905 C25.9101,26.2825 26.2301,25.9755 26.6691,25.8045 C27.3334298,25.5462759 27.8754745,25.7118442 28.2663458,25.9974173 C28.2884543,25.8804086 28.3218673,25.761594 28.37,25.6446 C28.539,25.2356 28.859,24.9296 29.298,24.7586 C29.3775525,24.727625 29.455364,24.7027433 29.5313829,24.6834315 L27.3098544,23.7514931 L18.8392143,27.4764064 L18.1058,27.1576 L18.0688,27.1726 L17.9725425,27.1322573 C18.0161782,27.0508688 18.0279936,26.9521369 17.9982,26.8585 C17.9952,26.8475 17.6652,25.7225 18.5992,25.3855 C19.4652,25.0755 19.8882,25.9075 19.9332,26.0015 C20.0132,26.1735 20.2172,26.2505 20.3892,26.1685 C20.3987171,26.1640734 20.4079372,26.1592703 20.4168505,26.1541165 C20.4444741,26.1510578 20.4722757,26.1447857 20.4987,26.1353 C20.6717,26.0713 20.7627,25.8773 20.7067,25.7013 C20.7037,25.6903 20.3737,24.5663 21.3077,24.2283 C22.1707,23.9183 22.5967,24.7503 22.6417,24.8453 C22.6593683,24.8830659 22.6830847,24.916198 22.711169,24.9440394 C22.7146354,24.9544807 22.7177825,24.963076 22.7205,24.9697 C22.7745,25.1007 22.8995,25.1777 23.0325,25.1777 C23.0725,25.1777 23.1145,25.1707 23.1535,25.1567 C23.3265,25.0927 23.4175,24.8987 23.3615,24.7237 C23.3585,24.7117 23.0285,23.5867 23.9625,23.2497 C24.8305,22.9377 25.2515,23.7717 25.2965,23.8667 C25.3755,24.0387 25.5795,24.1137 25.7525,24.0337 C25.9245,23.9537 25.9995,23.7497 25.9195,23.5777 C25.8361456,23.3975581 25.6900315,23.1754182 25.4861837,22.9789916 L26.4448,23.3886 L27.3098544,23.7514931 L18.8392143,27.4764064 L19.4838,27.7566 L19.4728,27.7616 L22.9866136,29.2362908 Z M17.2933105,26.8475828 C17.2422514,26.5502747 17.2156846,26.0567254 17.4182,25.5995 C17.4688466,25.4851914 17.5314216,25.3794489 17.6051095,25.2829745 C17.5990826,25.2733975 17.5934677,25.2634354 17.5883,25.2531 C17.5413,25.1591 17.0963,24.3371 16.2393,24.6701 C15.3293,25.0251 15.6723,26.1471 15.6763,26.1581 C15.6778595,26.1626227 15.6793211,26.1671609 15.6806858,26.171712 L17.2933105,26.8475828 Z M14.929534,25.856895 C14.9106246,25.6010976 14.926481,25.2902668 15.035509,24.9871864 L13.9458,25.4446 L14.929534,25.856895 Z M17.2821205,24.0441543 C17.4011626,24.0985719 17.5106458,24.1657926 17.6100586,24.2406138 C17.6207755,24.1228071 17.6415282,24.0008525 17.6761073,23.8787753 L17.2821205,24.0441543 Z M20.048518,22.8607762 C20.1255475,22.9015976 20.1981549,22.9476562 20.2661863,22.9973567 C20.2830598,22.9081273 20.3064968,22.8178451 20.3380048,22.7281183 L20.048518,22.8607762 Z M22.5042749,21.7354212 C23.0104187,21.932927 23.3577215,22.3659365 23.511,22.6761 C23.5139676,22.6821059 23.5167443,22.6881568 23.5193323,22.6942457 C23.5861628,22.6603351 23.6562736,22.6301014 23.7295,22.6037 C23.948334,22.5244959 24.1531333,22.4903341 24.3431073,22.4905649 L22.5388,21.7196 L22.5042749,21.7354212 Z M31.3847803,25.4609376 C31.4356789,25.5358044 31.4778713,25.6085631 31.511,25.6756 C31.5141923,25.6820606 31.5171637,25.6885733 31.5199169,25.6951293 C31.5863092,25.6614912 31.6559387,25.6314634 31.7286439,25.6051895 L31.3847803,25.4609376 Z M33.8869389,26.5106012 C33.8988764,26.5335071 33.9098998,26.5559136 33.92,26.5777 C33.9278008,26.5944716 33.9341278,26.6115475 33.9390348,26.628783 L34.0538,26.5806 L33.8869389,26.5106012 Z M33.3103194,26.8927428 C33.3055561,26.8843297 33.301109,26.8756461 33.297,26.8667 C33.252,26.7727 32.831,25.9377 31.963,26.2497 C31.0791646,26.5685999 31.3263026,27.5931271 31.3579416,27.712429 L33.3103194,26.8927428 Z M30.7246786,27.9782981 C30.7234187,27.9754585 30.7221923,27.9725924 30.721,27.9697 C30.7182647,27.9630898 30.7150911,27.954476 30.711592,27.943987 C30.6833228,27.915925 30.6594569,27.8824773 30.6417,27.8443 C30.5967,27.7503 30.1717,26.9183 29.3077,27.2283 C28.3737,27.5653 28.7027,28.6903 28.7067,28.7013 C28.7189975,28.7399494 28.7242062,28.7794669 28.7230143,28.818285 L29.9308,28.3116 L30.7246786,27.9782981 Z M28.0170852,29.1143877 C27.9827444,29.0837873 27.9540442,29.0457937 27.9337,29.0015 C27.8887,28.9075 27.4657,28.0755 26.5997,28.3855 C25.6657,28.7225 25.9947,29.8475 25.9977,29.8585 C26.0077867,29.890201 26.0131367,29.922486 26.0141182,29.9544842 L28.0170852,29.1143877 Z M34.9138,25.7646 L34.9138,18.7356 L31.9078,19.9966 C31.8408,20.0246 31.7688,20.0386 31.6978,20.0386 C31.6248,20.0386 31.5528,20.0246 31.4838,19.9946 L23.1868,16.5136 L23.1868,20.8436 L34.9138,25.7646 Z M34.9138,30.8586 L34.9138,27.3986 L25.8988,31.1806 L25.8988,34.6396 L34.9138,30.8586 Z M24.8128,34.6396 L24.8128,31.1806 L13.0858,26.2596 L13.0858,29.7196 L24.8128,34.6396 Z M20.2888,14.1196 L22.8518,15.1956 C22.8538,15.1956 22.8558,15.1966 22.8568,15.1976 L31.6978,18.9076 L34.0538,17.9186 L22.6438,13.1316 L20.2888,14.1196 Z M35.9938,17.8456 C35.9978,17.8716 35.9998,17.8966 35.9998,17.9226 L35.9998,26.5766 L35.9998,31.2186 C35.9998,31.4376 35.8688,31.6336 35.6668,31.7186 L25.5688,35.9556 C25.5358,35.9696 25.4998,35.9816 25.4628,35.9896 C25.4598,35.9906 25.4558,35.9906 25.4528,35.9916 C25.4378,35.9936 25.4248,35.9956 25.4098,35.9956 C25.3928,35.9986 25.3738,35.9996 25.3558,35.9996 C25.3378,35.9996 25.3198,35.9986 25.3018,35.9956 C25.2878,35.9956 25.2728,35.9936 25.2588,35.9916 C25.2558,35.9906 25.2528,35.9906 25.2488,35.9896 C25.2118,35.9816 25.1768,35.9696 25.1428,35.9556 L12.3328,30.5816 C12.1318,30.4956 11.9998,30.2986 11.9998,30.0796 L11.9998,25.4456 C11.9998,25.4226 12.0008,25.4026 12.0038,25.3796 C12.0048,25.3756 12.0048,25.3696 12.0058,25.3666 C12.0088,25.3496 12.0108,25.3346 12.0148,25.3196 C12.0158,25.3136 12.0178,25.3076 12.0188,25.3006 C12.0228,25.2856 12.0278,25.2726 12.0328,25.2586 C12.0348,25.2526 12.0368,25.2476 12.0378,25.2436 C12.0458,25.2246 12.0548,25.2056 12.0628,25.1886 C12.0648,25.1856 12.0668,25.1836 12.0678,25.1796 C12.0768,25.1646 12.0858,25.1506 12.0958,25.1366 C12.0988,25.1316 12.1018,25.1266 12.1058,25.1216 C12.1148,25.1106 12.1248,25.0986 12.1348,25.0856 C12.1378,25.0816 12.1418,25.0776 12.1448,25.0746 C12.1578,25.0616 12.1708,25.0476 12.1848,25.0356 C12.1858,25.0346 12.1878,25.0336 12.1888,25.0316 C12.2058,25.0176 12.2238,25.0046 12.2408,24.9926 L12.2418,24.9916 C12.2448,24.9906 12.2468,24.9886 12.2498,24.9876 C12.2638,24.9786 12.2788,24.9696 12.2938,24.9616 C12.2998,24.9576 12.3068,24.9556 12.3128,24.9526 C12.3198,24.9496 12.3268,24.9456 12.3328,24.9426 L22.1008,20.8446 L22.1008,16.0576 L18.6758,14.6196 C18.4738,14.5356 18.3418,14.3376 18.3418,14.1196 C18.3418,13.9006 18.4738,13.7026 18.6758,13.6186 L22.4348,12.0416 C22.4348,12.0416 22.4348,12.0416 22.4358,12.0406 C22.4498,12.0356 22.4648,12.0306 22.4798,12.0256 C22.4818,12.0246 22.4838,12.0236 22.4858,12.0226 C22.5198,12.0136 22.5568,12.0056 22.5918,12.0026 L22.5968,12.0026 C22.6748,11.9946 22.7558,12.0056 22.8348,12.0356 C22.8398,12.0366 22.8458,12.0386 22.8508,12.0406 C22.8508,12.0406 22.8528,12.0416 22.8538,12.0416 L35.6668,17.4176 L35.6738,17.4216 C35.6928,17.4306 35.7118,17.4396 35.7308,17.4506 C35.7348,17.4526 35.7398,17.4556 35.7448,17.4586 C35.7648,17.4716 35.7828,17.4836 35.8028,17.4996 C35.8048,17.5016 35.8068,17.5036 35.8098,17.5056 C35.8258,17.5196 35.8408,17.5346 35.8548,17.5506 C35.8578,17.5536 35.8608,17.5566 35.8638,17.5596 C35.8798,17.5776 35.8938,17.5966 35.9078,17.6166 C35.9088,17.6186 35.9108,17.6216 35.9118,17.6236 C35.9238,17.6406 35.9338,17.6586 35.9428,17.6776 C35.9448,17.6836 35.9478,17.6886 35.9508,17.6946 C35.9528,17.6996 35.9558,17.7036 35.9578,17.7086 C35.9648,17.7246 35.9708,17.7426 35.9758,17.7586 C35.9758,17.7596 35.9758,17.7596 35.9758,17.7606 C35.9828,17.7846 35.9878,17.8066 35.9918,17.8306 C35.9928,17.8356 35.9938,17.8406 35.9938,17.8456 Z M20.9326183,23.6403522 C20.9785651,23.6193547 21.0259419,23.59999 21.0747,23.5823 C21.7467067,23.3398996 22.2846693,23.519382 22.6681377,23.8154706 C22.6933713,23.6984122 22.7300398,23.5798834 22.7815,23.4637 C22.8395257,23.3330612 22.9132087,23.2134562 23.0013229,23.1060432 C22.9579698,23.0742966 22.9214051,23.0318176 22.896,22.9801 C22.848,22.8881 22.402,22.0661 21.547,22.3981 C20.9012112,22.6497521 20.8855693,23.2868289 20.9326183,23.6403522 Z M20.3257269,24.1107493 C20.3026315,24.0863695 20.2827487,24.05817 20.2671,24.0265 C20.2201,23.9335 19.7751,23.1115 18.9181,23.4445 C18.2252401,23.7144948 18.2577369,24.4275703 18.3147859,24.7588624 C18.3317483,24.7521968 18.3488871,24.7457421 18.3662,24.7395 C19.0491327,24.4929015 19.5953778,24.6843092 19.9809079,24.9904254 C20.0018516,24.8117245 20.0461592,24.6241396 20.1267,24.4423 C20.1801002,24.322075 20.2467611,24.2112837 20.3257269,24.1107493 Z M28.9326554,26.6403353 C28.9785906,26.6193443 29.025955,26.5999853 29.0747,26.5823 C29.7467854,26.3398712 30.2847953,26.5194241 30.6682724,26.8155746 C30.6935745,26.6984615 30.730359,26.5798922 30.782,26.4637 C30.840003,26.3331122 30.9136512,26.2136546 31.0017197,26.1064159 C30.9578982,26.0747594 30.9208525,26.032305 30.895,25.9806 C30.848,25.8876 30.402,25.0666 29.547,25.3986 C28.9010417,25.6503181 28.8855611,26.2871606 28.9326554,26.6403353 Z M28.325324,27.1112624 C28.3020476,27.0867832 28.2819659,27.0584185 28.2661,27.0265 C28.2191,26.9335 27.7741,26.1115 26.9181,26.4445 C26.2251399,26.7145338 26.2577463,27.4277766 26.3148106,27.7590062 C26.331926,27.7522896 26.3492231,27.7457869 26.3667,27.7395 C27.0489482,27.4929392 27.5952237,27.6842507 27.9809243,27.9902851 C28.0018748,27.8116263 28.0461802,27.624092 28.1267,27.4423 C28.1800094,27.3222795 28.2465344,27.2116606 28.325324,27.1112624 Z" id="Starter"></path>
        </g>
    </g>
</svg>